<?xml version="1.0" encoding="UTF-8"?>
<svg width="227px" height="64px" viewBox="0 0 227 64" version="1.1" xmlns="http://www.w3.org/2000/svg" xmlns:xlink="http://www.w3.org/1999/xlink">
    <!-- Generator: Sketch 43.2 (39069) - http://www.bohemiancoding.com/sketch -->
    <title>Slice</title>
    <desc>Created with Sketch.</desc>
    <defs></defs>
    <g id="Page-1" stroke="none" stroke-width="1" fill="none" fill-rule="evenodd">
        <path d="M19.5636029,51.1757697 L25.1636029,51.1757697 C26.2636084,51.1757697 27.0552672,50.9507719 27.5386029,50.5007697 C28.0219387,50.0507674 28.2636029,49.3091082 28.2636029,48.2757697 L28.2636029,45.3757697 C28.2636029,44.3424312 28.0136054,43.6091052 27.5136029,43.1757697 C27.0136004,42.7424342 26.1969419,42.5257697 25.0636029,42.5257697 L19.5636029,42.5257697 C19.1969344,42.5257697 19.0136029,42.7091012 19.0136029,43.0757697 L19.0136029,50.6257697 C19.0136029,50.9924382 19.1969344,51.1757697 19.5636029,51.1757697 Z M19.5636029,37.3757697 L24.6636029,37.3757697 C25.7302749,37.3757697 26.5136004,37.1507719 27.0136029,36.7007697 C27.5136054,36.2507674 27.7636029,35.5091082 27.7636029,34.4757697 L27.7636029,32.5257697 C27.7636029,31.4924312 27.5219387,30.7507719 27.0386029,30.3007697 C26.5552672,29.8507674 25.7802749,29.6257697 24.7136029,29.6257697 L19.5636029,29.6257697 C19.1969344,29.6257697 19.0136029,29.8091012 19.0136029,30.1757697 L19.0136029,36.8257697 C19.0136029,37.1924382 19.1969344,37.3757697 19.5636029,37.3757697 Z M12.6636029,55.4257697 L12.6636029,25.3757697 C12.6636029,24.6757662 13.0135994,24.3257697 13.7136029,24.3257697 L25.7136029,24.3257697 C28.3469494,24.3257697 30.3802624,25.0257627 31.8136029,26.4257697 C33.2469434,27.8257767 33.9636029,29.8257567 33.9636029,32.4257697 L33.9636029,34.4757697 C33.9636029,37.3091172 32.6469494,39.1424322 30.0136029,39.9757697 C31.3469429,40.1757707 32.4135989,40.7174319 33.2136029,41.6007697 C34.0136069,42.4841074 34.4136029,43.7424282 34.4136029,45.3757697 L34.4136029,48.3757697 C34.4136029,50.9757827 33.6969434,52.9757627 32.2636029,54.3757697 C30.8302624,55.7757767 28.8136159,56.4757697 26.2136029,56.4757697 L13.7136029,56.4757697 C13.0135994,56.4757697 12.6636029,56.1257732 12.6636029,55.4257697 Z M57.9136029,56.4757697 L41.4636029,56.4757697 C40.7635994,56.4757697 40.4136029,56.1257732 40.4136029,55.4257697 L40.4136029,25.3757697 C40.4136029,24.6757662 40.7635994,24.3257697 41.4636029,24.3257697 L45.7136029,24.3257697 C46.4136064,24.3257697 46.7636029,24.6757662 46.7636029,25.3757697 L46.7636029,50.3757697 C46.7636029,50.7424382 46.9636009,50.9257697 47.3636029,50.9257697 L57.9136029,50.9257697 C58.5802729,50.9257697 58.9136029,51.2924327 58.9136029,52.0257697 L58.9136029,55.4257697 C58.9136029,56.1257732 58.5802729,56.4757697 57.9136029,56.4757697 Z M66.2136029,56.4757697 L61.4136029,56.4757697 C60.8135999,56.4757697 60.6136019,56.1257732 60.8136029,55.4257697 L68.7136029,25.3757697 C68.9469374,24.6757662 69.4469324,24.3257697 70.2136029,24.3257697 L76.8636029,24.3257697 C77.6969404,24.3257697 78.1969354,24.6757662 78.3636029,25.3757697 L86.2636029,55.4257697 C86.4636039,56.1257732 86.2636059,56.4757697 85.6636029,56.4757697 L80.8636029,56.4757697 C80.4969344,56.4757697 80.2469369,56.4007704 80.1136029,56.2507697 C79.9802689,56.1007689 79.8802699,55.8257717 79.8136029,55.4257697 L78.4136029,49.9257697 L68.6636029,49.9257697 L67.2636029,55.4257697 C67.1969359,55.8257717 67.0886037,56.1007689 66.9386029,56.2507697 C66.7886022,56.4007704 66.5469379,56.4757697 66.2136029,56.4757697 Z M73.4636029,30.3757697 L69.8636029,44.8257697 L77.2636029,44.8257697 L73.6636029,30.3757697 L73.4636029,30.3757697 Z M103.913603,56.4757697 L98.4636029,56.4757697 C95.8302564,56.4757697 93.7969434,55.7757767 92.3636029,54.3757697 C90.9302624,52.9757627 90.2136029,50.9591162 90.2136029,48.3257697 L90.2136029,32.4757697 C90.2136029,29.8424232 90.9302624,27.8257767 92.3636029,26.4257697 C93.7969434,25.0257627 95.8302564,24.3257697 98.4636029,24.3257697 L103.913603,24.3257697 C106.513616,24.3257697 108.538596,25.0340959 109.988603,26.4507697 C111.43861,27.8674434 112.163603,29.8757567 112.163603,32.4757697 L112.163603,34.8257697 C112.163603,35.5591067 111.79694,35.9257697 111.063603,35.9257697 L106.863603,35.9257697 C106.163599,35.9257697 105.813603,35.5591067 105.813603,34.8257697 L105.813603,32.7757697 C105.813603,31.7090977 105.588605,30.9507719 105.138603,30.5007697 C104.688601,30.0507674 103.930275,29.8257697 102.863603,29.8257697 L99.4636029,29.8257697 C98.4302644,29.8257697 97.6886052,30.0507674 97.2386029,30.5007697 C96.7886007,30.9507719 96.5636029,31.7090977 96.5636029,32.7757697 L96.5636029,48.0257697 C96.5636029,49.0924417 96.7886007,49.8507674 97.2386029,50.3007697 C97.6886052,50.7507719 98.4302644,50.9757697 99.4636029,50.9757697 L102.863603,50.9757697 C103.930275,50.9757697 104.688601,50.7507719 105.138603,50.3007697 C105.588605,49.8507674 105.813603,49.0924417 105.813603,48.0257697 L105.813603,45.9757697 C105.813603,45.2424327 106.163599,44.8757697 106.863603,44.8757697 L111.063603,44.8757697 C111.79694,44.8757697 112.163603,45.2424327 112.163603,45.9757697 L112.163603,48.3257697 C112.163603,50.9257827 111.43861,52.9340959 109.988603,54.3507697 C108.538596,55.7674434 106.513616,56.4757697 103.913603,56.4757697 Z M122.913603,56.4757697 L118.663603,56.4757697 C117.963599,56.4757697 117.613603,56.1257732 117.613603,55.4257697 L117.613603,25.3757697 C117.613603,24.6757662 117.963599,24.3257697 118.663603,24.3257697 L122.913603,24.3257697 C123.613606,24.3257697 123.963603,24.6757662 123.963603,25.3757697 L123.963603,39.6257697 L124.063603,39.6257697 C124.330271,38.8257657 124.846932,37.7924427 125.613603,36.5257697 L133.213603,25.3757697 C133.646938,24.6757662 134.296932,24.3257697 135.163603,24.3257697 L140.063603,24.3257697 C140.430271,24.3257697 140.655269,24.4341019 140.738603,24.6507697 C140.821937,24.8674374 140.730271,25.1424347 140.463603,25.4757697 L130.963603,38.6257697 L141.563603,55.2257697 C141.796937,55.6257717 141.838604,55.9341019 141.688603,56.1507697 C141.538602,56.3674374 141.230272,56.4757697 140.763603,56.4757697 L137.113603,56.4757697 C135.94693,56.4757697 135.163605,56.1257732 134.763603,55.4257697 L127.113603,43.1757697 L123.963603,46.8757697 L123.963603,55.4257697 C123.963603,56.1257732 123.613606,56.4757697 122.913603,56.4757697 Z M150.813603,56.4757697 L146.563603,56.4757697 C145.863599,56.4757697 145.513603,56.1257732 145.513603,55.4257697 L145.513603,25.3757697 C145.513603,24.6757662 145.863599,24.3257697 146.563603,24.3257697 L158.763603,24.3257697 C161.363616,24.3257697 163.380262,25.0340959 164.813603,26.4507697 C166.246943,27.8674434 166.963603,29.8757567 166.963603,32.4757697 L166.963603,37.2757697 C166.963603,39.8757827 166.246943,41.8840959 164.813603,43.3007697 C163.380262,44.7174434 161.363616,45.4257697 158.763603,45.4257697 L152.463603,45.4257697 C152.063601,45.4257697 151.863603,45.6091012 151.863603,45.9757697 L151.863603,55.4257697 C151.863603,56.1257732 151.513606,56.4757697 150.813603,56.4757697 Z M152.413603,39.8757697 L157.713603,39.8757697 C158.780275,39.8757697 159.530267,39.6507719 159.963603,39.2007697 C160.396938,38.7507674 160.613603,38.0091082 160.613603,36.9757697 L160.613603,32.7757697 C160.613603,31.7090977 160.396938,30.9507719 159.963603,30.5007697 C159.530267,30.0507674 158.780275,29.8257697 157.713603,29.8257697 L152.413603,29.8257697 C152.046934,29.8257697 151.863603,30.0091012 151.863603,30.3757697 L151.863603,39.3257697 C151.863603,39.6924382 152.046934,39.8757697 152.413603,39.8757697 Z M189.413603,56.4757697 L173.063603,56.4757697 C172.363599,56.4757697 172.013603,56.1257732 172.013603,55.4257697 L172.013603,25.3757697 C172.013603,24.6757662 172.363599,24.3257697 173.063603,24.3257697 L189.413603,24.3257697 C190.080273,24.3257697 190.413603,24.6757662 190.413603,25.3757697 L190.413603,28.7757697 C190.413603,29.4757732 190.080273,29.8257697 189.413603,29.8257697 L178.963603,29.8257697 C178.563601,29.8257697 178.363603,30.0091012 178.363603,30.3757697 L178.363603,36.8757697 C178.363603,37.2424382 178.563601,37.4257697 178.963603,37.4257697 L187.513603,37.4257697 C188.213606,37.4257697 188.563603,37.7757662 188.563603,38.4757697 L188.563603,41.8757697 C188.563603,42.5757732 188.213606,42.9257697 187.513603,42.9257697 L178.963603,42.9257697 C178.563601,42.9257697 178.363603,43.1091012 178.363603,43.4757697 L178.363603,50.4257697 C178.363603,50.7924382 178.563601,50.9757697 178.963603,50.9757697 L189.413603,50.9757697 C190.080273,50.9757697 190.413603,51.3257662 190.413603,52.0257697 L190.413603,55.4257697 C190.413603,56.1257732 190.080273,56.4757697 189.413603,56.4757697 Z M205.913603,56.4757697 L201.713603,56.4757697 C200.980266,56.4757697 200.613603,56.1257732 200.613603,55.4257697 L200.613603,30.3757697 C200.613603,30.0091012 200.430271,29.8257697 200.063603,29.8257697 L194.363603,29.8257697 C193.663599,29.8257697 193.313603,29.4757732 193.313603,28.7757697 L193.313603,25.3757697 C193.313603,24.6757662 193.663599,24.3257697 194.363603,24.3257697 L213.263603,24.3257697 C213.963606,24.3257697 214.313603,24.6757662 214.313603,25.3757697 L214.313603,28.7757697 C214.313603,29.4757732 213.963606,29.8257697 213.263603,29.8257697 L207.563603,29.8257697 C207.163601,29.8257697 206.963603,30.0091012 206.963603,30.3757697 L206.963603,55.4257697 C206.963603,56.1257732 206.613606,56.4757697 205.913603,56.4757697 Z" id="BLACKPET" fill="#000000"></path>
        <polygon id="Path" fill="#000000" points="96.3582765 0.660719689 93.1010532 20.2908197 137.610114 20.2908197 134.516439 0.660719689 115.355583 14.4214115"></polygon>
    </g>
</svg>